# xmcd
#
# Track frame offsets: 
#        150
#        12600
#        26447
#        40622
#        54347
#        66272
#        83147
#        97382
#        112037
#        125968
#
# Disc length: 1960 seconds
#
# Revision: 0
# Processed by: cddbd v1.5.2PL0 Copyright (c) Steve Scherf et al.
# Submitted via: ExactAudioCopy v0.99pb5
#
DISCID=8b07a60a
DTITLE=Oldbreakout - Za g³osem bluesa idz
DYEAR=2014
DGENRE=Blues
TTITLE0=01.Bluesa dosta³em
TTITLE1=02.Za g³osem bluesa
TTITLE2=03.K³amstwo to podstawa
TTITLE3=04.Moda na wojnê
TTITLE4=05.Biegn¹ z mojego domu
TTITLE5=06.Dzien twój szczesliwy
TTITLE6=07.Rób co ci ka¿ê
TTITLE7=08.Ulice trzy
TTITLE8=09.Oni zaraz przyjd¹ tu
TTITLE9=10.Modlitwa
EXTD=
EXTT0=
EXTT1=
EXTT2=
EXTT3=
EXTT4=
EXTT5=
EXTT6=
EXTT7=
EXTT8=
EXTT9=
PLAYORDER=
